<svg xmlns="http://www.w3.org/2000/svg" xmlns:xlink="http://www.w3.org/1999/xlink" xmlns:inkscape="http://www.inkscape.org/namespaces/inkscape" version="1.1" viewBox="0 0 375 375">
  <defs>
    <clipPath id="clip_0">
      <path d="M43.021677 166.22779 44.761346 163.73542 57.895265 172.90285 56.155595 175.39522 43.021677 166.22779Z"/>
    </clipPath>
    <clipPath id="clip_1">
      <path d="M97.31264 204.12271 99.05231 201.63034 112.186229 210.79778 110.446559 213.29015 97.31264 204.12271Z"/>
    </clipPath>
    <clipPath id="clip_2">
      <path d="M55.31896 223.09505 52.826585 221.35538 61.99402 208.22145 64.4864 209.96112 55.31896 223.09505Z"/>
    </clipPath>
    <clipPath id="clip_3">
      <path d="M77.9803 190.6288 75.48793 188.88913 99.88894 153.93051 102.38132 155.67017 77.9803 190.6288Z"/>
    </clipPath>
    <clipPath id="clip_4">
      <path d="M37.054689 181.56212 37.678518 178.58736 53.354455 181.87471 52.73063 184.84947 37.054689 181.56212Z"/>
    </clipPath>
    <clipPath id="clip_5">
      <path d="M101.853458 195.15084 102.47728 192.17607 118.15322 195.46343 117.529399 198.43819 101.853458 195.15084Z"/>
    </clipPath>
    <clipPath id="clip_6">
      <path d="M70.65329 229.06203 67.67853 228.4382 70.96588 212.76226 73.94064 213.3861 70.65329 229.06203Z"/>
    </clipPath>
    <clipPath id="clip_7">
      <path d="M84.24202 164.26328 81.26726 163.63945 84.55461 147.9635 87.52937 148.58734 84.24202 164.26328Z"/>
    </clipPath>
    <clipPath id="clip_8">
      <path d="M37.392728 197.20827 36.860486 194.21576 52.629926 191.41103 53.162168 194.40354 37.392728 197.20827Z"/>
    </clipPath>
    <clipPath id="clip_9">
      <path d="M102.57799 185.6145 102.045749 182.622 117.815189 179.81726 118.34743 182.80977 102.57799 185.6145Z"/>
    </clipPath>
    <clipPath id="clip_10">
      <path d="M86.29945 228.724 83.306949 229.25624 80.50222 213.4868 83.49473 212.95456 86.29945 228.724Z"/>
    </clipPath>
    <clipPath id="clip_11">
      <path d="M74.70569 163.53873 71.71318 164.07097 68.908458 148.30153 71.90096 147.76929 74.70569 163.53873Z"/>
    </clipPath>
    <clipPath id="clip_12">
      <path d="M44.01643 212.27059 42.35407 209.726 55.763139 200.96595 57.425504 203.51053 44.01643 212.27059Z"/>
    </clipPath>
    <clipPath id="clip_13">
      <path d="M99.44476 176.05962 97.7824 173.51503 111.191478 164.75498 112.853839 167.29956 99.44476 176.05962Z"/>
    </clipPath>
    <clipPath id="clip_14">
      <path d="M101.36175 222.10028 98.81716 223.76265 90.057109 210.35358 92.60169 208.69121 101.36175 222.10028Z"/>
    </clipPath>
    <clipPath id="clip_15">
      <path d="M65.15079 166.67197 62.606199 168.33434 53.846147 154.92527 56.39073 153.2629 65.15079 166.67197Z"/>
    </clipPath>
  </defs>
  <rect x="0" y="0"  rx="100" ry="100" transform="matrix(.75,0,0,.75,0,0)" fill="none"/>
  <g clip-path="url(#clip_0)">
    <path transform="matrix(.81547006,-1.1683004,1.1683004,.81547006,43.021677,166.22779)" d="M0 0H2.1333335V11.241904H0Z" fill="#fffef0"/>
  </g>
  <g clip-path="url(#clip_1)">
    <path transform="matrix(.81547006,-1.1683004,1.1683004,.81547006,97.31264,204.12271)" d="M0 0H2.1333335V11.241904H0Z" fill="#fffef0"/>
  </g>
  <g clip-path="url(#clip_2)">
    <path transform="matrix(-1.1683004,-.81547006,.81547006,-1.1683004,55.31896,223.09505)" d="M0 0H2.1333335V11.241904H0Z" fill="#fffef0"/>
  </g>
  <g clip-path="url(#clip_3)">
    <path transform="matrix(-1.1683004,-.81547006,.81547006,-1.1683004,77.9803,190.6288)" d="M0 0H2.1333335V29.922636H0Z" fill="#fffef0"/>
  </g>
  <g clip-path="url(#clip_4)">
    <path transform="matrix(.29241944,-1.3944204,1.3944204,.29241944,37.054689,181.56212)" d="M0 0H2.1333335V11.241904H0Z" fill="#fffef0"/>
  </g>
  <g clip-path="url(#clip_5)">
    <path transform="matrix(.29241944,-1.3944204,1.3944204,.29241944,101.853458,195.15084)" d="M0 0H2.1333335V11.241904H0Z" fill="#fffef0"/>
  </g>
  <g clip-path="url(#clip_6)">
    <path transform="matrix(-1.3944204,-.29241944,.29241944,-1.3944204,70.65329,229.06203)" d="M0 0H2.1333335V11.241904H0Z" fill="#fffef0"/>
  </g>
  <g clip-path="url(#clip_7)">
    <path transform="matrix(-1.3944204,-.29241944,.29241944,-1.3944204,84.24202,164.26328)" d="M0 0H2.1333335V11.241904H0Z" fill="#fffef0"/>
  </g>
  <g clip-path="url(#clip_8)">
    <path transform="matrix(-.24948871,-1.4027375,1.4027375,-.24948871,37.392728,197.20827)" d="M0 0H2.1333335V11.241904H0Z" fill="#fffef0"/>
  </g>
  <g clip-path="url(#clip_9)">
    <path transform="matrix(-.24948871,-1.4027375,1.4027375,-.24948871,102.57799,185.6145)" d="M0 0H2.1333335V11.241904H0Z" fill="#fffef0"/>
  </g>
  <g clip-path="url(#clip_10)">
    <path transform="matrix(-1.4027375,.24948871,-.24948871,-1.4027375,86.29945,228.724)" d="M0 0H2.1333335V11.241904H0Z" fill="#fffef0"/>
  </g>
  <g clip-path="url(#clip_11)">
    <path transform="matrix(-1.4027375,.24948871,-.24948871,-1.4027375,74.70569,163.53873)" d="M0 0H2.1333335V11.241904H0Z" fill="#fffef0"/>
  </g>
  <g clip-path="url(#clip_12)">
    <path transform="matrix(-.77923247,-1.1927759,1.1927759,-.77923247,44.01643,212.27059)" d="M0 0H2.1333335V11.241904H0Z" fill="#fffef0"/>
  </g>
  <g clip-path="url(#clip_13)">
    <path transform="matrix(-.77923247,-1.1927759,1.1927759,-.77923247,99.44476,176.05962)" d="M0 0H2.1333335V11.241904H0Z" fill="#fffef0"/>
  </g>
  <g clip-path="url(#clip_14)">
    <path transform="matrix(-1.1927759,.77923229,-.77923229,-1.1927759,101.36175,222.10028)" d="M0 0H2.1333335V11.241904H0Z" fill="#fffef0"/>
  </g>
  <g clip-path="url(#clip_15)">
    <path transform="matrix(-1.1927759,.77923229,-.77923229,-1.1927759,65.15079,166.67197)" d="M0 0H2.1333335V11.241904H0Z" fill="#fffef0"/>
  </g>
  <path transform="matrix(.032330354,0,0,.032330354,135.4467,206.26953)" d="M1023 0V-160H362V-1360H185V0H1023Z" fill="#ffffff"/>
  <text fill-opacity="0" xml:space="preserve" transform="matrix(1.3033969 0 0 1.3033969 135.44525 150.32878)" font-size="50.8" font-family="Unnamed"><tspan y="42.9192" x=".0011120439">L</tspan></text>
  <path transform="matrix(.032330354,0,0,.032330354,168.35486,206.26953)" d="M609 29C914 29 1141-210 1141-510 1141-809 913-1049 609-1049 306-1049 79-808 79-510 79-210 307 29 609 29ZM611-133C408-133 251-293 251-510 251-725 408-887 611-887 813-887 969-725 969-510 969-293 813-133 611-133Z" fill="#ffffff"/>
  <text fill-opacity="0" xml:space="preserve" transform="matrix(1.3033969 0 0 1.3033969 135.44525 150.32878)" font-size="50.8" font-family="Unnamed"><tspan y="42.9192" x="25.249106">o</tspan></text>
  <path transform="matrix(.032330354,0,0,.032330354,206.33856,206.26953)" d="M609 29C914 29 1141-210 1141-510 1141-809 913-1049 609-1049 306-1049 79-808 79-510 79-210 307 29 609 29ZM611-133C408-133 251-293 251-510 251-725 408-887 611-887 813-887 969-725 969-510 969-293 813-133 611-133Z" fill="#ffffff"/>
  <text fill-opacity="0" xml:space="preserve" transform="matrix(1.3033969 0 0 1.3033969 135.44525 150.32878)" font-size="50.8" font-family="Unnamed"><tspan y="42.9192" x="54.39119">o</tspan></text>
  <path transform="matrix(.032330354,0,0,.032330354,244.32227,206.26953)" d="M337 348V-98L334-213C406-65 557 29 725 29 1010 29 1226-210 1226-510 1226-808 1011-1048 723-1048 546-1048 401-943 330-802V-1020H165V348H337ZM695-131C499-131 336-293 336-510 336-721 496-888 695-888 894-888 1055-730 1055-510 1055-285 891-131 695-131Z" fill="#ffffff"/>
  <text fill-opacity="0" xml:space="preserve" transform="matrix(1.3033969 0 0 1.3033969 135.44525 150.32878)" font-size="50.8" font-family="Unnamed"><tspan y="42.9192" x="83.53327">p</tspan></text>
  <path transform="matrix(.032330354,0,0,.032330354,285.08619,206.26953)" d="M338 0V-480C338-726 471-869 650-869H740V-1020H641C493-1020 381-933 331-792V-1020H165V0H338Z" fill="#ffffff"/>
  <text fill-opacity="0" xml:space="preserve" transform="matrix(1.3033969 0 0 1.3033969 135.44525 150.32878)" font-size="50.8" font-family="Unnamed"><tspan y="42.9192" x="114.808429">r</tspan></text>
</svg>
