<svg xmlns="http://www.w3.org/2000/svg" xmlns:xlink="http://www.w3.org/1999/xlink" xmlns:inkscape="http://www.inkscape.org/namespaces/inkscape" version="1.1" width="375" height="375" viewBox="0 0 375 375">
<defs>
<clipPath id="clip_0">
<path d="M100.80344 131.63231 105.16473 125.38401 138.091 148.36646 133.72972 154.61475 100.80344 131.63231Z"/>
</clipPath>
<clipPath id="clip_1">
<path d="M236.90898 226.63356 241.27028 220.38527 274.19657 243.3677 269.83528 249.616 236.90898 226.63356Z"/>
</clipPath>
<clipPath id="clip_2">
<path d="M131.63231 274.19657 125.38401 269.83528 148.36646 236.909 154.61475 241.27028 131.63231 274.19657Z"/>
</clipPath>
<clipPath id="clip_3">
<path d="M188.44351 192.80478 182.19522 188.44348 243.3677 100.80343 249.616 105.16472 188.44351 192.80478Z"/>
</clipPath>
<clipPath id="clip_4">
<path d="M85.844409 170.07492 87.408329 162.6173 126.70736 170.85857 125.14345 178.3162 85.844409 170.07492Z"/>
</clipPath>
<clipPath id="clip_5">
<path d="M248.29267 204.14144 249.85659 196.6838 289.1556 204.92508 287.5917 212.3827 248.29267 204.14144Z"/>
</clipPath>
<clipPath id="clip_6">
<path d="M170.07492 289.15559 162.6173 287.59169 170.85857 248.29264 178.3162 249.85654 170.07492 289.15559Z"/>
</clipPath>
<clipPath id="clip_7">
<path d="M204.1414 126.70738 196.68378 125.14346 204.92505 85.84443 212.38268 87.40834 204.1414 126.70738Z"/>
</clipPath>
<clipPath id="clip_8">
<path d="M86.69184 209.29932 85.35753 201.79721 124.89096 194.76586 126.22528 202.26796 86.69184 209.29932Z"/>
</clipPath>
<clipPath id="clip_9">
<path d="M250.10901 180.23419 248.77469 172.73209 288.30815 165.70073 289.64247 173.20284 250.10901 180.23419Z"/>
</clipPath>
<clipPath id="clip_10">
<path d="M209.29929 288.30818 201.79718 289.6425 194.76583 250.10904 202.26793 248.77474 209.29929 288.30818Z"/>
</clipPath>
<clipPath id="clip_11">
<path d="M180.23416 124.890979 172.73206 126.22529 165.7007 86.69185 173.2028 85.357547 180.23416 124.890979Z"/>
</clipPath>
<clipPath id="clip_12">
<path d="M103.29725 247.06002 99.12976 240.68082 132.74584 218.71967 136.91333 225.09885 103.29725 247.06002Z"/>
</clipPath>
<clipPath id="clip_13">
<path d="M242.25415 156.2804 238.08667 149.9012 271.70274 127.94004 275.87025 134.31925 242.25415 156.2804Z"/>
</clipPath>
<clipPath id="clip_14">
<path d="M247.05998 271.70277 240.68079 275.87025 218.71964 242.25417 225.09883 238.08669 247.05998 271.70277Z"/>
</clipPath>
<clipPath id="clip_15">
<path d="M156.28037 132.74585 149.90117 136.91333 127.94002 103.29726 134.31922 99.129779 156.28037 132.74585Z"/>
</clipPath>
</defs>
<rect x="0" y="0" width="500" height="500" rx="100" ry="100" transform="matrix(.75,0,0,.75,0,0)"/>
<g clip-path="url(#clip_0)">
<path transform="matrix(2.044355,-2.9288884,2.9288884,2.044355,100.80344,131.63231)" d="M0 0H2.1333335V11.241904H0Z" fill="#ffffff"/>
</g>
<g clip-path="url(#clip_1)">
<path transform="matrix(2.044355,-2.9288884,2.9288884,2.044355,236.90898,226.63356)" d="M0 0H2.1333335V11.241904H0Z" fill="#ffffff"/>
</g>
<g clip-path="url(#clip_2)">
<path transform="matrix(-2.9288884,-2.044355,2.044355,-2.9288884,131.63231,274.19657)" d="M0 0H2.1333335V11.241904H0Z" fill="#ffffff"/>
</g>
<g clip-path="url(#clip_3)">
<path transform="matrix(-2.9288884,-2.044355,2.044355,-2.9288884,188.44351,192.80478)" d="M0 0H2.1333335V29.922636H0Z" fill="#ffffff"/>
</g>
<g clip-path="url(#clip_4)">
<path transform="matrix(.7330852,-3.4957636,3.4957636,.7330852,85.844409,170.07492)" d="M0 0H2.1333335V11.241904H0Z" fill="#ffffff"/>
</g>
<g clip-path="url(#clip_5)">
<path transform="matrix(.7330852,-3.4957636,3.4957636,.7330852,248.29267,204.14144)" d="M0 0H2.1333335V11.241904H0Z" fill="#ffffff"/>
</g>
<g clip-path="url(#clip_6)">
<path transform="matrix(-3.4957636,-.7330852,.7330852,-3.4957636,170.07492,289.15559)" d="M0 0H2.1333335V11.241904H0Z" fill="#ffffff"/>
</g>
<g clip-path="url(#clip_7)">
<path transform="matrix(-3.4957636,-.7330852,.7330852,-3.4957636,204.1414,126.70738)" d="M0 0H2.1333335V11.241904H0Z" fill="#ffffff"/>
</g>
<g clip-path="url(#clip_8)">
<path transform="matrix(-.62545958,-3.516614,3.516614,-.62545958,86.69184,209.29932)" d="M0 0H2.1333335V11.241904H0Z" fill="#ffffff"/>
</g>
<g clip-path="url(#clip_9)">
<path transform="matrix(-.62545958,-3.516614,3.516614,-.62545958,250.10901,180.23419)" d="M0 0H2.1333335V11.241904H0Z" fill="#ffffff"/>
</g>
<g clip-path="url(#clip_10)">
<path transform="matrix(-3.516614,.62545958,-.62545958,-3.516614,209.29929,288.30818)" d="M0 0H2.1333335V11.241904H0Z" fill="#ffffff"/>
</g>
<g clip-path="url(#clip_11)">
<path transform="matrix(-3.516614,.62545958,-.62545958,-3.516614,180.23416,124.890979)" d="M0 0H2.1333335V11.241904H0Z" fill="#ffffff"/>
</g>
<g clip-path="url(#clip_12)">
<path transform="matrix(-1.9535087,-2.9902473,2.9902473,-1.9535087,103.29725,247.06002)" d="M0 0H2.1333335V11.241904H0Z" fill="#ffffff"/>
</g>
<g clip-path="url(#clip_13)">
<path transform="matrix(-1.9535087,-2.9902473,2.9902473,-1.9535087,242.25415,156.2804)" d="M0 0H2.1333335V11.241904H0Z" fill="#ffffff"/>
</g>
<g clip-path="url(#clip_14)">
<path transform="matrix(-2.9902473,1.9535081,-1.9535081,-2.9902473,247.05998,271.70277)" d="M0 0H2.1333335V11.241904H0Z" fill="#ffffff"/>
</g>
<g clip-path="url(#clip_15)">
<path transform="matrix(-2.9902473,1.9535081,-1.9535081,-2.9902473,156.28037,132.74585)" d="M0 0H2.1333335V11.241904H0Z" fill="#ffffff"/>
</g>
</svg>
